<?xml version="1.0" encoding="utf-8"?>
<!-- Generator: Adobe Illustrator 18.0.0, SVG Export Plug-In . SVG Version: 6.00 Build 0)  -->
<!DOCTYPE svg PUBLIC "-//W3C//DTD SVG 1.1//EN" "http://www.w3.org/Graphics/SVG/1.1/DTD/svg11.dtd">
<svg version="1.1" id="图层_1" xmlns="http://www.w3.org/2000/svg" xmlns:xlink="http://www.w3.org/1999/xlink" x="0px" y="0px"
	 viewBox="0 0 50 50" enable-background="new 0 0 50 50" xml:space="preserve">
<g>
	<polygon fill-rule="evenodd" clip-rule="evenodd" fill="#229CD8" points="39,20.7 30.4,20.7 30.4,21.5 37.6,21.5 30.4,28.6 
		30.4,29.3 39,29.3 39,28.5 31.8,28.5 39,21.4 	"/>
	<polygon fill-rule="evenodd" clip-rule="evenodd" fill="#229CD8" points="49.1,20.7 49.1,29.3 40.2,29.3 40.2,20.7 41.1,20.7 
		41.1,28.6 48.4,28.6 48.4,20.7 	"/>
	<rect x="27.6" y="20.7" fill-rule="evenodd" clip-rule="evenodd" fill="#229CD8" width="1.5" height="8.6"/>
	<polygon fill-rule="evenodd" clip-rule="evenodd" fill="#229CD8" points="26.1,24.6 26.1,25.5 19.8,25.5 19.8,28.4 26.1,28.4 
		26.1,29.3 17.7,29.3 17.7,20.7 26.1,20.7 26.1,21.6 19.8,21.6 19.8,24.6 	"/>
	<polygon fill-rule="evenodd" clip-rule="evenodd" fill="#229CD8" points="16.2,29.3 16.2,20.7 0.9,20.7 0.9,29.3 7,29.3 7,22.1 
		8.2,22.1 8.2,29.3 12.2,29.3 12.2,22.1 13.3,22.1 13.3,29.3 	"/>
</g>
</svg>
